<svg width="82" height="82" viewBox="0 0 82 82" fill="none" xmlns="http://www.w3.org/2000/svg">
<path d="M41 0C63.6435 0.000107204 82 18.3565 82 41C81.9999 63.6434 63.6434 81.9999 41 82C18.3565 82 0.000107218 63.6435 0 41C0 18.3564 18.3564 0 41 0ZM41 4.87402C21.0483 4.87402 4.87402 21.0483 4.87402 41C4.87411 57.4693 15.8957 71.3631 30.9648 75.7119V68.8115H30.9639C30.9443 68.7928 28.95 66.8813 27.3809 64.9707C23.7971 64.9706 18.2922 63.523 18.0625 60.6875C17.8695 58.3007 17.799 55.4324 17.7812 54.584C15.7933 54.0238 14.3351 52.1983 14.335 50.0312C14.3351 47.4189 16.4531 45.3012 19.0654 45.3008C21.6781 45.3008 23.7967 47.4187 23.7969 50.0312C23.7967 52.0907 22.4798 53.8425 20.6426 54.4922V58.7676C20.643 60.6874 24.6573 61.8695 28.6709 61.5742C29.1022 61.8719 34.0911 67.8922 34.1182 67.9248V76.4678C35.6167 76.7568 37.1478 76.9531 38.7061 77.0508V55.9092H38.707C38.7137 51.4053 39.0352 41.9737 40.2832 39.1367C41.3822 35.8875 44.138 30.3924 44.7275 29.2451C45.3167 28.0983 44.096 27.1813 42.1465 28.0986C40.8561 29.5326 38.0184 33.7471 36.9863 39.1367C36.3651 43.1031 35.3521 51.2363 36.2695 52.0391C32.9724 49.6021 26.7797 42.8066 28.3848 35.123C29.675 28.9587 36.0403 15.7696 51.1787 12.3291C52.8033 19.4493 53.9021 32.3992 53.042 36.4131C52.1849 40.4114 47.7724 45.4057 47.7383 45.4443C47.7277 45.4555 42.863 50.6067 42.29 52.3252C41.808 53.7715 41.8344 55.4207 41.8545 55.9092H41.8604V77.1143C43.3167 77.0802 44.7513 76.9584 46.1602 76.7568V70.6748L50.3174 66.2305V63.6133C48.5558 62.9247 47.3068 61.2114 47.3066 59.2061C47.3068 56.5938 49.4249 54.4761 52.0371 54.4756C54.6497 54.4756 56.7684 56.5935 56.7686 59.2061C56.7684 61.1566 55.5872 62.831 53.9014 63.5547V67.6641L49.6006 72.1084V76.0928C53.983 75.0224 58.0513 73.1535 61.6436 70.6475V54.2949C59.6583 53.7329 58.2031 51.9093 58.2031 49.7441C58.2033 47.1317 60.3211 45.0138 62.9336 45.0137C65.546 45.0139 67.6648 47.1318 67.665 49.7441C67.665 51.6946 66.4834 53.3689 64.7979 54.0928V68.1777C72.3537 61.5562 77.1259 51.8359 77.126 41C77.126 21.0484 60.9516 4.87412 41 4.87402ZM52.1807 57.3428C51.0726 57.3432 50.1739 58.2415 50.1738 59.3496C50.174 60.4576 51.0727 61.356 52.1807 61.3564C53.289 61.3564 54.1873 60.4579 54.1875 59.3496C54.1875 58.2412 53.2891 57.3428 52.1807 57.3428ZM19.209 48.168C18.1009 48.1683 17.2022 49.0666 17.2021 50.1748C17.2023 51.2829 18.1009 52.1813 19.209 52.1816C20.3173 52.1816 21.2157 51.2831 21.2158 50.1748C21.2158 49.0664 20.3174 48.168 19.209 48.168ZM63.0771 47.8809C61.9688 47.8809 61.0704 48.7794 61.0703 49.8877C61.0703 50.9961 61.9687 51.8945 63.0771 51.8945C64.1853 51.8943 65.084 50.9959 65.084 49.8877C65.0839 48.7795 64.1853 47.8811 63.0771 47.8809Z" fill="#F7C13C"/>
</svg>
