<svg width="217" height="197" viewBox="0 0 217 197" fill="none" xmlns="http://www.w3.org/2000/svg">
<path d="M108.146 0C143.572 0 172.291 28.7189 172.291 64.1455C172.291 99.5722 143.572 128.291 108.146 128.291C72.7189 128.291 44 99.5721 44 64.1455C44.0001 28.719 72.719 0.000111342 108.146 0ZM108.146 7.62598C76.9305 7.62608 51.6261 32.9305 51.626 64.1455C51.626 89.9129 68.8694 111.652 92.4463 118.455V107.657L91.917 107.141C90.9183 106.155 88.6893 103.902 86.8389 101.648C81.2317 101.648 72.6186 99.384 72.2598 94.9473C71.9577 91.2122 71.847 86.7236 71.8193 85.3975C68.7092 84.5211 66.4287 81.6658 66.4287 78.2754C66.4289 74.1879 69.7425 70.8741 73.8301 70.874C77.9176 70.8741 81.2313 74.1879 81.2314 78.2754C81.2314 81.4978 79.1713 84.2377 76.2969 85.2539V91.9434C76.297 94.9474 82.5775 96.7961 88.8574 96.334C89.5296 96.7962 97.3441 106.227 97.3799 106.271V119.641C99.7239 120.093 102.119 120.401 104.557 120.554V87.4707H104.558C104.568 80.4239 105.071 65.6676 107.023 61.2295C108.743 56.1458 113.054 47.5485 113.977 45.7539C114.898 43.9597 112.99 42.5246 109.939 43.96C107.921 46.2031 103.48 52.797 101.865 61.2295C100.893 67.4341 99.3095 80.1568 100.744 81.415C95.5855 77.6019 85.8963 66.9706 88.4082 54.9492C90.4271 45.3047 100.386 24.671 124.069 19.2881C126.611 30.4272 128.331 50.687 126.985 56.9678C125.644 63.2288 118.728 71.0504 118.687 71.0977C118.687 71.0977 111.062 79.1725 110.164 81.8643C109.41 84.1265 109.451 86.7058 109.482 87.4707H109.491V120.649C111.77 120.596 114.015 120.407 116.22 120.092V110.573L122.724 103.62V99.5234C119.968 98.4464 118.014 95.7674 118.014 92.6299C118.014 88.5425 121.328 85.2289 125.415 85.2285C129.503 85.2285 132.816 88.5422 132.816 92.6299C132.816 95.682 130.969 98.3007 128.331 99.4326V105.863L121.603 112.815V119.054C128.458 117.379 134.823 114.454 140.442 110.534V84.9463C137.337 84.0672 135.06 81.2145 135.06 77.8271C135.06 73.7396 138.373 70.426 142.461 70.4258C146.549 70.4258 149.862 73.7395 149.862 77.8271C149.862 80.8791 148.014 83.4979 145.377 84.6299V106.67C157.2 96.3102 164.666 81.1 164.666 64.1455C164.666 32.9305 139.361 7.62598 108.146 7.62598ZM125.64 89.7139C123.906 89.7142 122.499 91.1205 122.499 92.8545C122.499 94.5883 123.906 95.9938 125.64 95.9941C127.374 95.994 128.779 94.5884 128.779 92.8545C128.779 91.1204 127.374 89.714 125.64 89.7139ZM74.0547 75.3594C72.3206 75.3594 70.9142 76.7659 70.9141 78.5C70.9142 80.2341 72.3206 81.6396 74.0547 81.6396C75.7886 81.6394 77.1942 80.2339 77.1943 78.5C77.1942 76.7661 75.7886 75.3596 74.0547 75.3594ZM142.686 74.9111C140.952 74.9114 139.545 76.3177 139.545 78.0518C139.545 79.7856 140.952 81.1912 142.686 81.1914C144.419 81.1913 145.825 79.7857 145.825 78.0518C145.825 76.3177 144.42 74.9113 142.686 74.9111Z" fill="#F7C13C"/>
<path d="M1.18829 183.943L9.36529 159.19H15.3223L23.4623 183.943L22.9813 184.72H19.8363L17.9123 178.652H6.77529L4.81429 184.72H1.70629L1.18829 183.943ZM7.84829 175.248H16.8393L12.7323 162.594H11.9553L7.84829 175.248ZM28.2963 178.874V159.19H32.0333V179.244C32.0333 180.625 32.7363 181.316 34.1423 181.316H41.9123C43.3183 181.316 44.0213 180.625 44.0213 179.244V159.19H47.7583V178.874C47.7583 182.771 45.822 184.72 41.9493 184.72H34.1053C30.2326 184.72 28.2963 182.771 28.2963 178.874ZM55.1742 184.72V159.19H67.3472C71.2198 159.19 73.1562 161.139 73.1562 165.036V169.143C73.1562 172.3 71.8612 174.15 69.2712 174.693L73.8962 183.869L73.4522 184.72H70.2702L65.3122 174.952H58.9112V184.72H55.1742ZM58.9112 171.548H67.3102C68.7162 171.548 69.4192 170.845 69.4192 169.439V164.666C69.4192 163.285 68.7162 162.594 67.3102 162.594H58.9112V171.548ZM79.8014 178.874V159.19H83.5384V179.244C83.5384 180.625 84.2414 181.316 85.6474 181.316H93.4174C94.8234 181.316 95.5264 180.625 95.5264 179.244V159.19H99.2634V178.874C99.2634 182.771 97.3271 184.72 93.4544 184.72H85.6104C81.7378 184.72 79.8014 182.771 79.8014 178.874ZM106.679 184.72V159.19H111.415L119.555 176.506L127.695 159.19H132.468V184.72H128.694V165.258L121.257 181.131H117.89L110.416 165.258V184.72H106.679ZM150.055 184.72V159.19H153.792V181.316H165.817V184.72H150.055ZM168.521 183.943L176.698 159.19H182.655L190.795 183.943L190.314 184.72H187.169L185.245 178.652H174.108L172.147 184.72H169.039L168.521 183.943ZM175.181 175.248H184.172L180.065 162.594H179.288L175.181 175.248ZM195.851 184.72V159.19H207.654C211.526 159.19 213.463 161.139 213.463 165.036V167.478C213.463 168.317 213.216 169.032 212.723 169.624L211.428 171.178L212.982 172.473C213.796 173.139 214.203 174.126 214.203 175.433V178.874C214.203 182.771 212.266 184.72 208.394 184.72H195.851ZM199.588 181.316H208.357C209.763 181.316 210.466 180.625 210.466 179.244V175.211C210.466 173.805 209.763 173.102 208.357 173.102H199.588V181.316ZM199.588 169.698H207.617C209.023 169.698 209.726 168.995 209.726 167.589V164.666C209.726 163.285 209.023 162.594 207.617 162.594H199.588V169.698Z" fill="#F7C13C"/>
</svg>
