<svg width="273" height="82" viewBox="0 0 273 82" fill="none" xmlns="http://www.w3.org/2000/svg">
<path d="M41 0C63.6435 0.000107204 82 18.3565 82 41C81.9999 63.6434 63.6434 81.9999 41 82C18.3565 82 0.000107218 63.6435 0 41C0 18.3564 18.3564 0 41 0ZM41 4.87402C21.0483 4.87402 4.87402 21.0483 4.87402 41C4.87411 57.4693 15.8957 71.3631 30.9648 75.7119V68.8115H30.9639C30.9443 68.7928 28.95 66.8813 27.3809 64.9707C23.7971 64.9706 18.2922 63.523 18.0625 60.6875C17.8695 58.3007 17.799 55.4324 17.7812 54.584C15.7933 54.0238 14.3351 52.1983 14.335 50.0312C14.3351 47.4189 16.4531 45.3012 19.0654 45.3008C21.6781 45.3008 23.7967 47.4187 23.7969 50.0312C23.7967 52.0907 22.4798 53.8425 20.6426 54.4922V58.7676C20.643 60.6874 24.6573 61.8695 28.6709 61.5742C29.1022 61.8719 34.0911 67.8922 34.1182 67.9248V76.4678C35.6167 76.7568 37.1478 76.9531 38.7061 77.0508V55.9092H38.707C38.7137 51.4053 39.0352 41.9737 40.2832 39.1367C41.3822 35.8875 44.138 30.3924 44.7275 29.2451C45.3167 28.0983 44.096 27.1813 42.1465 28.0986C40.8561 29.5326 38.0184 33.7471 36.9863 39.1367C36.3651 43.1031 35.3521 51.2363 36.2695 52.0391C32.9724 49.6021 26.7797 42.8066 28.3848 35.123C29.675 28.9587 36.0403 15.7696 51.1787 12.3291C52.8033 19.4493 53.9021 32.3992 53.042 36.4131C52.1849 40.4114 47.7724 45.4057 47.7383 45.4443C47.7277 45.4555 42.863 50.6067 42.29 52.3252C41.808 53.7715 41.8344 55.4207 41.8545 55.9092H41.8604V77.1143C43.3167 77.0802 44.7513 76.9584 46.1602 76.7568V70.6748L50.3174 66.2305V63.6133C48.5558 62.9247 47.3068 61.2114 47.3066 59.2061C47.3068 56.5938 49.4249 54.4761 52.0371 54.4756C54.6497 54.4756 56.7684 56.5935 56.7686 59.2061C56.7684 61.1566 55.5872 62.831 53.9014 63.5547V67.6641L49.6006 72.1084V76.0928C53.983 75.0224 58.0513 73.1535 61.6436 70.6475V54.2949C59.6583 53.7329 58.2031 51.9093 58.2031 49.7441C58.2033 47.1317 60.3211 45.0138 62.9336 45.0137C65.546 45.0139 67.6648 47.1318 67.665 49.7441C67.665 51.6946 66.4834 53.3689 64.7979 54.0928V68.1777C72.3537 61.5562 77.1259 51.8359 77.126 41C77.126 21.0484 60.9516 4.87412 41 4.87402ZM52.1807 57.3428C51.0726 57.3432 50.1739 58.2415 50.1738 59.3496C50.174 60.4576 51.0727 61.356 52.1807 61.3564C53.289 61.3564 54.1873 60.4579 54.1875 59.3496C54.1875 58.2412 53.2891 57.3428 52.1807 57.3428ZM19.209 48.168C18.1009 48.1683 17.2022 49.0666 17.2021 50.1748C17.2023 51.2829 18.1009 52.1813 19.209 52.1816C20.3173 52.1816 21.2157 51.2831 21.2158 50.1748C21.2158 49.0664 20.3174 48.168 19.209 48.168ZM63.0771 47.8809C61.9688 47.8809 61.0704 48.7794 61.0703 49.8877C61.0703 50.9961 61.9687 51.8945 63.0771 51.8945C64.1853 51.8943 65.084 50.9959 65.084 49.8877C65.0839 48.7795 64.1853 47.8811 63.0771 47.8809Z" fill="#F7C13C"/>
<path d="M108.241 49.845V36.3122C108.241 35.7617 108.371 35.2647 108.631 34.8213C108.906 34.3625 109.266 34.0032 109.709 33.7432C110.168 33.468 110.672 33.3304 111.223 33.3304H121.751C122.301 33.3304 122.806 33.468 123.265 33.7432C123.723 34.0032 124.083 34.3625 124.343 34.8213C124.618 35.2647 124.756 35.7617 124.756 36.3122V49.845H122.255V44.0649H110.718V49.845H108.241ZM110.718 41.5877H122.255V36.381C122.255 36.2281 122.202 36.0981 122.095 35.9911C121.988 35.8687 121.858 35.8076 121.705 35.8076H111.292C111.139 35.8076 111.001 35.8687 110.879 35.9911C110.772 36.0981 110.718 36.2281 110.718 36.381V41.5877ZM130.993 49.845C130.443 49.845 129.938 49.715 129.479 49.455C129.036 49.1798 128.676 48.8205 128.401 48.377C128.141 47.9183 128.011 47.4137 128.011 46.8632V33.3304H130.488V46.7944C130.488 46.9473 130.542 47.0849 130.649 47.2072C130.771 47.3143 130.909 47.3678 131.062 47.3678H141.475C141.628 47.3678 141.758 47.3143 141.865 47.2072C141.972 47.0849 142.026 46.9473 142.026 46.7944V33.3304H144.526V46.8632C144.526 47.4137 144.388 47.9183 144.113 48.377C143.853 48.8205 143.494 49.1798 143.035 49.455C142.576 49.715 142.079 49.845 141.544 49.845H130.993ZM161.273 49.845L156.112 43.6749H159.346L164.163 49.3862V49.845H161.273ZM147.74 49.845V33.3533H161.25C161.8 33.3533 162.305 33.4909 162.764 33.7662C163.222 34.0414 163.582 34.4084 163.842 34.8671C164.117 35.3106 164.254 35.7999 164.254 36.3351V40.9684C164.254 41.5189 164.117 42.0235 163.842 42.4822C163.582 42.9257 163.222 43.285 162.764 43.5602C162.305 43.8202 161.8 43.9502 161.25 43.9502L150.217 43.9731V49.845H147.74ZM150.79 41.45H161.204C161.357 41.45 161.487 41.3965 161.594 41.2895C161.701 41.1824 161.754 41.0525 161.754 40.8996V36.4039C161.754 36.251 161.701 36.121 161.594 36.014C161.487 35.8917 161.357 35.8305 161.204 35.8305H150.79C150.638 35.8305 150.5 35.8917 150.378 36.014C150.271 36.121 150.217 36.251 150.217 36.4039V40.8996C150.217 41.0525 150.271 41.1824 150.378 41.2895C150.5 41.3965 150.638 41.45 150.79 41.45ZM170.291 49.845C169.741 49.845 169.236 49.715 168.778 49.455C168.334 49.1798 167.975 48.8205 167.699 48.377C167.44 47.9183 167.31 47.4137 167.31 46.8632V33.3304H169.787V46.7944C169.787 46.9473 169.84 47.0849 169.947 47.2072C170.07 47.3143 170.207 47.3678 170.36 47.3678H180.774C180.926 47.3678 181.056 47.3143 181.163 47.2072C181.271 47.0849 181.324 46.9473 181.324 46.7944V33.3304H183.824V46.8632C183.824 47.4137 183.687 47.9183 183.411 48.377C183.151 48.8205 182.792 49.1798 182.333 49.455C181.875 49.715 181.378 49.845 180.842 49.845H170.291ZM187.038 49.845V33.3304H189.997L196.396 40.9454L202.773 33.3304H205.755V49.845H203.255V36.6562L196.396 44.8218L189.515 36.6562V49.845H187.038ZM216.369 49.845V33.3074H218.847V47.3678H232.884V49.845H216.369ZM234.955 49.845V36.3122C234.955 35.7617 235.085 35.2647 235.345 34.8213C235.62 34.3625 235.98 34.0032 236.423 33.7432C236.882 33.468 237.386 33.3304 237.937 33.3304H248.465C249.015 33.3304 249.52 33.468 249.979 33.7432C250.438 34.0032 250.797 34.3625 251.057 34.8213C251.332 35.2647 251.47 35.7617 251.47 36.3122V49.845H248.97V44.0649H237.432V49.845H234.955ZM237.432 41.5877H248.97V36.381C248.97 36.2281 248.916 36.0981 248.809 35.9911C248.702 35.8687 248.572 35.8076 248.419 35.8076H238.006C237.853 35.8076 237.715 35.8687 237.593 35.9911C237.486 36.0981 237.432 36.2281 237.432 36.381V41.5877ZM254.84 49.845V33.3304H267.685C268.22 33.3304 268.717 33.468 269.176 33.7432C269.634 34.0032 269.994 34.3625 270.254 34.8213C270.529 35.2647 270.667 35.7617 270.667 36.3122V39.6839C270.667 39.8827 270.644 40.0815 270.598 40.2803C270.567 40.479 270.506 40.6625 270.414 40.8307C270.72 41.2589 270.949 41.6641 271.102 42.0464C271.271 42.4134 271.355 42.788 271.355 43.1703V46.8632C271.355 47.4137 271.217 47.9183 270.942 48.377C270.682 48.8205 270.322 49.1798 269.864 49.455C269.405 49.715 268.9 49.845 268.35 49.845H254.84ZM257.891 47.3678H268.304C268.457 47.3678 268.587 47.3143 268.694 47.2072C268.801 47.0849 268.854 46.9473 268.854 46.7944V43.2391C268.854 43.0862 268.801 42.9562 268.694 42.8492C268.587 42.7269 268.457 42.6657 268.304 42.6657H257.891C257.738 42.6657 257.6 42.7269 257.478 42.8492C257.371 42.9562 257.317 43.0862 257.317 43.2391V46.7944C257.317 46.9473 257.371 47.0849 257.478 47.2072C257.6 47.3143 257.738 47.3678 257.891 47.3678ZM257.891 40.1885H267.616C267.769 40.1885 267.899 40.135 268.006 40.028C268.113 39.9056 268.166 39.768 268.166 39.6151V36.381C268.166 36.2281 268.113 36.0981 268.006 35.9911C267.899 35.8687 267.769 35.8076 267.616 35.8076H257.891C257.738 35.8076 257.6 35.8687 257.478 35.9911C257.371 36.0981 257.317 36.2281 257.317 36.381V39.6151C257.317 39.768 257.371 39.9056 257.478 40.028C257.6 40.135 257.738 40.1885 257.891 40.1885Z" fill="#F7C13C"/>
</svg>
