<svg width="36" height="32" viewBox="0 0 36 32" fill="none" xmlns="http://www.w3.org/2000/svg">
<path d="M10.9375 26.8125C12.0996 26.8125 13.125 27.8379 13.125 29C13.125 30.2305 12.0996 31.1875 10.9375 31.1875H6.5625C2.87109 31.1875 0 28.3164 0 24.625V7.125C0 3.50195 2.87109 0.5625 6.5625 0.5625H10.9375C12.0996 0.5625 13.125 1.58789 13.125 2.75C13.125 3.98047 12.0996 4.9375 10.9375 4.9375H6.5625C5.33203 4.9375 4.375 5.96289 4.375 7.125V24.625C4.375 25.8555 5.33203 26.8125 6.5625 26.8125H10.9375ZM34.3164 14.3711C35.2051 15.1914 35.2051 16.627 34.3164 17.4473L25.5664 26.1973C24.7461 27.0859 23.3105 27.0859 22.4902 26.1973C21.6016 25.377 21.6016 23.9414 22.4902 23.1211L27.4805 18.0625H13.125C11.8945 18.0625 10.9375 17.1055 10.9375 15.875C10.9375 14.7129 11.8945 13.6875 13.125 13.6875H27.4805L22.4902 8.69727C21.6016 7.87695 21.6016 6.44141 22.4902 5.62109C23.3105 4.73242 24.7461 4.73242 25.5664 5.62109L34.3164 14.3711Z" fill="#F8F8F8"/>
</svg>
