<svg width="60" height="53" viewBox="0 0 60 53" fill="none" xmlns="http://www.w3.org/2000/svg">
<path d="M7.5 43.375C7.5 44.4297 8.32031 45.25 9.375 45.25H56.25C58.2422 45.25 60 47.0078 60 49C60 51.1094 58.2422 52.75 56.25 52.75H9.375C4.10156 52.75 0 48.6484 0 43.375V4C0 2.00781 1.64062 0.25 3.75 0.25C5.74219 0.25 7.5 2.00781 7.5 4V43.375ZM40.0781 29.1953C38.6719 30.7188 36.2109 30.7188 34.8047 29.1953L28.125 22.5156L17.5781 32.9453C16.1719 34.4688 13.7109 34.4688 12.3047 32.9453C10.7812 31.5391 10.7812 29.0781 12.3047 27.6719L25.4297 14.5469C26.8359 13.0234 29.2969 13.0234 30.7031 14.5469L37.5 21.2266L49.8047 8.92188C51.2109 7.39844 53.6719 7.39844 55.0781 8.92188C56.6016 10.3281 56.6016 12.7891 55.0781 14.1953L40.0781 29.1953Z" fill="#F7C13C"/>
</svg>
