<svg width="31" height="32" viewBox="0 0 31 32" fill="none" xmlns="http://www.w3.org/2000/svg">
<path d="M11.125 3.84375C11.125 2.06641 12.5605 0.5625 14.4062 0.5625H16.5938C18.3711 0.5625 19.875 2.06641 19.875 3.84375V27.9062C19.875 29.752 18.3711 31.1875 16.5938 31.1875H14.4062C12.5605 31.1875 11.125 29.752 11.125 27.9062V3.84375ZM0.1875 16.9688C0.1875 15.1914 1.62305 13.6875 3.46875 13.6875H5.65625C7.43359 13.6875 8.9375 15.1914 8.9375 16.9688V27.9062C8.9375 29.752 7.43359 31.1875 5.65625 31.1875H3.46875C1.62305 31.1875 0.1875 29.752 0.1875 27.9062V16.9688ZM27.5312 4.9375C29.3086 4.9375 30.8125 6.44141 30.8125 8.21875V27.9062C30.8125 29.752 29.3086 31.1875 27.5312 31.1875H25.3438C23.498 31.1875 22.0625 29.752 22.0625 27.9062V8.21875C22.0625 6.44141 23.498 4.9375 25.3438 4.9375H27.5312Z" fill="#F8F8F8"/>
</svg>
