<svg width="45" height="33" viewBox="0 0 45 33" fill="none" xmlns="http://www.w3.org/2000/svg">
<path d="M28.036 0.842565C29.8583 0.842565 31.4003 2.38454 31.4003 4.20688V22.1499C31.4003 24.0424 29.8583 25.5142 28.036 25.5142H18.6439L19.4149 27.7571H24.6717C25.8632 27.7571 26.9146 28.8085 26.9146 30C26.9146 31.2616 25.8632 32.2429 24.6717 32.2429H6.72864C5.46702 32.2429 4.48576 31.2616 4.48576 30C4.48576 28.8085 5.46702 27.7571 6.72864 27.7571H11.9153L12.6863 25.5142H3.36432C1.47189 25.5142 0 24.0424 0 22.1499V4.20688C0 2.38454 1.47189 0.842565 3.36432 0.842565H28.036ZM4.48576 5.32832V21.0285H26.9146V5.32832H4.48576ZM41.4933 0.842565C43.3156 0.842565 44.8576 2.38454 44.8576 4.20688V28.8786C44.8576 30.771 43.3156 32.2429 41.4933 32.2429H37.0075C35.1151 32.2429 33.6432 30.771 33.6432 28.8786V4.20688C33.6432 2.38454 35.1151 0.842565 37.0075 0.842565H41.4933ZM38.129 5.32832C37.4981 5.32832 37.0075 5.88904 37.0075 6.44976C37.0075 7.08057 37.4981 7.5712 38.129 7.5712H40.3718C40.9326 7.5712 41.4933 7.08057 41.4933 6.44976C41.4933 5.88904 40.9326 5.32832 40.3718 5.32832H38.129ZM38.129 12.057H40.3718C40.9326 12.057 41.4933 11.5663 41.4933 10.9355C41.4933 10.3748 40.9326 9.81408 40.3718 9.81408H38.129C37.4981 9.81408 37.0075 10.3748 37.0075 10.9355C37.0075 11.5663 37.4981 12.057 38.129 12.057ZM39.2504 26.6357C40.4419 26.6357 41.4933 25.6544 41.4933 24.3928C41.4933 23.2013 40.4419 22.1499 39.2504 22.1499C37.9888 22.1499 37.0075 23.2013 37.0075 24.3928C37.0075 25.6544 37.9888 26.6357 39.2504 26.6357Z" fill="#F7C13C"/>
</svg>
