<svg width="41" height="36" viewBox="0 0 41 36" fill="none" xmlns="http://www.w3.org/2000/svg">
<path d="M36.9062 0.375C38.6836 0.375 40.1875 1.87891 40.1875 3.65625V25.5312C40.1875 27.377 38.6836 28.8125 36.9062 28.8125H23.7812L24.875 32.0938H29.7969C30.6855 32.0938 31.4375 32.8457 31.4375 33.7344C31.4375 34.6914 30.6855 35.375 29.7969 35.375H11.2031C10.2461 35.375 9.5625 34.6914 9.5625 33.7344C9.5625 32.8457 10.2461 32.0938 11.2031 32.0938H16.125L17.2188 28.8125H4.09375C2.24805 28.8125 0.8125 27.377 0.8125 25.5312V3.65625C0.8125 1.87891 2.24805 0.375 4.09375 0.375H36.9062ZM35.8125 20.0625V4.75H5.1875V20.0625H35.8125Z" fill="#132437"/>
</svg>
