<svg width="21" height="17" viewBox="0 0 21 17" fill="none" xmlns="http://www.w3.org/2000/svg">
<path d="M6 8.25C6 5.78906 8.00391 3.75 10.5 3.75C12.9609 3.75 15 5.78906 15 8.25C15 10.7461 12.9609 12.75 10.5 12.75C8.00391 12.75 6 10.7461 6 8.25ZM10.5 11.0625C12.0469 11.0625 13.3125 9.83203 13.3125 8.25C13.3125 6.70312 12.0469 5.4375 10.5 5.4375C10.4648 5.4375 10.4297 5.4375 10.3945 5.4375C10.4648 5.64844 10.5 5.82422 10.5 6C10.5 7.26562 9.48047 8.25 8.25 8.25C8.03906 8.25 7.86328 8.25 7.6875 8.17969C7.6875 8.21484 7.6875 8.25 7.6875 8.25C7.6875 9.83203 8.91797 11.0625 10.5 11.0625ZM3.71484 3.22266C5.36719 1.67578 7.65234 0.375 10.5 0.375C13.3125 0.375 15.5977 1.67578 17.25 3.22266C18.9023 4.73438 19.9922 6.5625 20.5195 7.82812C20.625 8.10938 20.625 8.42578 20.5195 8.70703C19.9922 9.9375 18.9023 11.7656 17.25 13.3125C15.5977 14.8594 13.3125 16.125 10.5 16.125C7.65234 16.125 5.36719 14.8594 3.71484 13.3125C2.0625 11.7656 0.972656 9.9375 0.445312 8.70703C0.339844 8.42578 0.339844 8.10938 0.445312 7.82812C0.972656 6.5625 2.0625 4.73438 3.71484 3.22266ZM10.5 2.0625C8.17969 2.0625 6.31641 3.11719 4.875 4.45312C3.50391 5.71875 2.58984 7.19531 2.09766 8.25C2.58984 9.30469 3.50391 10.8164 4.875 12.082C6.31641 13.418 8.17969 14.4375 10.5 14.4375C12.7852 14.4375 14.6484 13.418 16.0898 12.082C17.4609 10.8164 18.375 9.30469 18.8672 8.25C18.375 7.19531 17.4609 5.71875 16.0898 4.45312C14.6484 3.11719 12.7852 2.0625 10.5 2.0625Z" fill="#747474"/>
</svg>
