<svg width="76" height="61" viewBox="0 0 76 61" fill="none" xmlns="http://www.w3.org/2000/svg">
<path d="M26.5469 1.55469C27.9531 0.265625 30.1797 0.265625 31.5859 1.55469L55.9609 24.0547C56.7812 24.7578 57.25 25.8125 57.25 26.75H40.375C38.0312 26.75 36.0391 27.8047 34.75 29.3281V24.875C34.75 23.9375 33.8125 23 32.875 23H25.375C24.3203 23 23.5 23.9375 23.5 24.875V32.375C23.5 33.4297 24.3203 34.25 25.375 34.25H32.7578V49.25H14.125C10.9609 49.25 8.5 46.7891 8.5 43.625V30.5H4.75C3.10938 30.5 1.70312 29.5625 1.23438 28.1562C0.648438 26.75 1 25.1094 2.17188 24.0547L26.5469 1.55469ZM40.375 30.5H66.625C68.6172 30.5 70.375 32.2578 70.375 34.25V53H74.125C75.0625 53 76 53.9375 76 54.875C76 58.0391 73.4219 60.5 70.375 60.5H36.5078C33.4609 60.5 30.8828 58.0391 30.8828 54.875C30.8828 53.9375 31.8203 53 32.7578 53H36.5078V34.25C36.5078 32.2578 38.2656 30.5 40.375 30.5ZM42.25 36.125V53H64.75V36.125H42.25Z" fill="#F7C13C"/>
</svg>
