<svg width="22" height="26" viewBox="0 0 22 26" fill="none" xmlns="http://www.w3.org/2000/svg">
<path d="M3.96875 9.5V7.15625C3.96875 3.29883 7.09375 0.125 11 0.125C14.8574 0.125 18.0312 3.29883 18.0312 7.15625V9.5H18.8125C20.5215 9.5 21.9375 10.916 21.9375 12.625V22C21.9375 23.7578 20.5215 25.125 18.8125 25.125H3.1875C1.42969 25.125 0.0625 23.7578 0.0625 22V12.625C0.0625 10.916 1.42969 9.5 3.1875 9.5H3.96875ZM7.09375 9.5H14.9062V7.15625C14.9062 5.00781 13.1484 3.25 11 3.25C8.80273 3.25 7.09375 5.00781 7.09375 7.15625V9.5Z" fill="#F7C13C"/>
</svg>
