<svg width="22" height="21" viewBox="0 0 22 21" fill="none" xmlns="http://www.w3.org/2000/svg">
<path d="M15.1406 1.28125C16.1172 0.304688 17.7188 0.304688 18.6953 1.28125L20.2188 2.80469C21.1953 3.78125 21.1953 5.38281 20.2188 6.35938L18.3438 8.23438L13.2656 3.15625L15.1406 1.28125ZM17.4453 9.13281L8.34375 18.2344C7.95312 18.625 7.44531 18.9375 6.89844 19.0938L2.17188 20.4609C1.85938 20.5781 1.50781 20.5 1.27344 20.2266C1 19.9922 0.921875 19.6406 1 19.3281L2.40625 14.6016C2.5625 14.0547 2.875 13.5469 3.26562 13.1562L12.3672 4.05469L17.4453 9.13281Z" fill="#0168AD"/>
</svg>
