<svg width="18" height="21" viewBox="0 0 18 21" fill="none" xmlns="http://www.w3.org/2000/svg">
<path d="M5.52344 1.20312C5.71875 0.773438 6.14844 0.5 6.61719 0.5H11.3438C11.8125 0.5 12.2422 0.773438 12.4375 1.20312L12.75 1.75H16.5C17.1641 1.75 17.75 2.33594 17.75 3C17.75 3.70312 17.1641 4.25 16.5 4.25H1.5C0.796875 4.25 0.25 3.70312 0.25 3C0.25 2.33594 0.796875 1.75 1.5 1.75H5.25L5.52344 1.20312ZM15.6406 18.7422C15.6016 19.7578 14.7812 20.5 13.7656 20.5H4.19531C3.17969 20.5 2.35938 19.7578 2.32031 18.7422L1.46094 5.5H16.5L15.6406 18.7422Z" fill="#F73C3C"/>
</svg>
