<svg width="75" height="61" viewBox="0 0 75 61" fill="none" xmlns="http://www.w3.org/2000/svg">
<path d="M37.3828 38C30.7031 38 25.1953 32.6094 25.3125 25.8125C25.3125 19.1328 30.7031 13.625 37.3828 13.625C44.0625 13.625 49.5703 19.1328 49.5703 25.8125C49.5703 32.6094 44.1797 38 37.3828 38ZM43.2422 41.75C52.5 41.75 60 48.7812 60 57.4531C60 59.2109 58.4766 60.5 56.6016 60.5H18.2812C16.4062 60.5 15 59.2109 15 57.4531C15 48.7812 22.3828 41.75 31.6406 41.75H43.2422ZM60 19.25C54.7266 19.25 50.625 15.1484 50.625 9.875C50.625 4.71875 54.7266 0.5 60 0.5C65.1562 0.5 69.375 4.71875 69.375 9.875C69.375 15.1484 65.1562 19.25 60 19.25ZM21.4453 25.8125C21.4453 29.7969 22.9688 33.4297 25.4297 36.125H1.99219C0.820312 36.125 0 35.1875 0 34.0156C0 27.9219 4.57031 23 10.3125 23H17.4609C18.9844 23 20.3906 23.3516 21.6797 24.0547C21.5625 24.6406 21.4453 25.2266 21.4453 25.8125ZM15 19.25C9.72656 19.25 5.625 15.1484 5.625 9.875C5.625 4.71875 9.72656 0.5 15 0.5C20.1562 0.5 24.375 4.71875 24.375 9.875C24.375 15.1484 20.1562 19.25 15 19.25ZM64.5703 23C70.3125 23 75 27.9219 75 34.0156C75 35.1875 74.0625 36.125 72.8906 36.125H49.4531C51.9141 33.4297 53.3203 29.7969 53.3203 25.8125C53.3203 25.2266 53.2031 24.6406 53.2031 24.0547C54.4922 23.4688 55.8984 23 57.4219 23H64.5703Z" fill="#F7C13C"/>
</svg>
