<svg width="35" height="36" viewBox="0 0 35 36" fill="none" xmlns="http://www.w3.org/2000/svg">
<path d="M17.5 0.375C27.1387 0.375 35 8.23633 35 17.875C35 27.582 27.1387 35.375 17.5 35.375C7.79297 35.375 0 27.582 0 17.875C0 8.23633 7.79297 0.375 17.5 0.375ZM17.5 9.125C14.7656 9.125 12.5781 11.3809 12.5781 14.0469C12.5781 16.7812 14.7656 18.9688 17.5 18.9688C20.166 18.9688 22.4219 16.7812 22.4219 14.0469C22.4219 11.3809 20.166 9.125 17.5 9.125ZM17.5 31C21.0547 31 24.3359 29.5645 26.7285 27.1719C25.6348 24.3008 22.9004 22.25 19.6875 22.25H15.3125C12.0312 22.25 9.29688 24.3008 8.20312 27.1719C10.5957 29.5645 13.877 31 17.5 31Z" fill="#F8F8F8"/>
</svg>
