<svg width="13" height="13" viewBox="0 0 13 13" fill="none" xmlns="http://www.w3.org/2000/svg">
<path d="M12.3594 10.6406C12.8672 11.1094 12.8672 11.9297 12.3594 12.3984C12.125 12.6328 11.8125 12.75 11.5 12.75C11.1484 12.75 10.8359 12.6328 10.6016 12.3984L6.5 8.29688L2.35938 12.3984C2.125 12.6328 1.8125 12.75 1.5 12.75C1.14844 12.75 0.835938 12.6328 0.601562 12.3984C0.09375 11.9297 0.09375 11.1094 0.601562 10.6406L4.70312 6.5L0.601562 2.39844C0.09375 1.92969 0.09375 1.10938 0.601562 0.640625C1.07031 0.132812 1.89062 0.132812 2.35938 0.640625L6.5 4.74219L10.6016 0.640625C11.0703 0.132812 11.8906 0.132812 12.3594 0.640625C12.8672 1.10938 12.8672 1.92969 12.3594 2.39844L8.25781 6.53906L12.3594 10.6406Z" fill="#F7C13C"/>
</svg>
